<mxfile host="app.diagrams.net" modified="2023-10-10T19:26:36.653Z" agent="Mozilla/5.0 (Windows NT 10.0; Win64; x64) AppleWebKit/537.36 (KHTML, like Gecko) Chrome/117.0.0.0 Safari/537.36" etag="fdSY6wawthaAXSbEgaYV" version="22.0.4" type="device">
  <diagram name="Страница — 1" id="A5UIjb4X52Br7rHdH-h_">
    <mxGraphModel dx="940" dy="470" grid="1" gridSize="10" guides="1" tooltips="1" connect="1" arrows="1" fold="1" page="1" pageScale="1" pageWidth="1169" pageHeight="827" math="0" shadow="0">
      <root>
        <mxCell id="0" />
        <mxCell id="1" parent="0" />
        <mxCell id="rJDQWY2zP7hxmgYJOwPS-56" value="" style="rounded=0;whiteSpace=wrap;html=1;" parent="1" vertex="1">
          <mxGeometry x="160" width="650" height="500" as="geometry" />
        </mxCell>
        <mxCell id="rJDQWY2zP7hxmgYJOwPS-2" value="1" style="edgeLabel;resizable=0;html=1;align=left;verticalAlign=bottom;fontSize=12;" parent="1" connectable="0" vertex="1">
          <mxGeometry x="350" y="83.5" as="geometry" />
        </mxCell>
        <mxCell id="rJDQWY2zP7hxmgYJOwPS-3" value="*" style="edgeLabel;resizable=0;html=1;align=right;verticalAlign=bottom;fontSize=12;" parent="1" connectable="0" vertex="1">
          <mxGeometry x="639.9999041278214" y="83.50319616511274" as="geometry" />
        </mxCell>
        <mxCell id="rJDQWY2zP7hxmgYJOwPS-4" value="1" style="edgeLabel;resizable=0;html=1;align=left;verticalAlign=bottom;fontSize=12;" parent="1" connectable="0" vertex="1">
          <mxGeometry x="350" y="267.5" as="geometry" />
        </mxCell>
        <mxCell id="rJDQWY2zP7hxmgYJOwPS-5" value="*" style="edgeLabel;resizable=0;html=1;align=right;verticalAlign=bottom;fontSize=12;" parent="1" connectable="0" vertex="1">
          <mxGeometry x="639.9999041278214" y="267.50319616511274" as="geometry" />
        </mxCell>
        <mxCell id="rJDQWY2zP7hxmgYJOwPS-6" value="1" style="edgeLabel;resizable=0;html=1;align=left;verticalAlign=bottom;fontSize=12;" parent="1" connectable="0" vertex="1">
          <mxGeometry x="699.92" y="203.5" as="geometry" />
        </mxCell>
        <mxCell id="rJDQWY2zP7hxmgYJOwPS-7" value="*" style="edgeLabel;resizable=0;html=1;align=right;verticalAlign=bottom;fontSize=12;" parent="1" connectable="0" vertex="1">
          <mxGeometry x="429.9999041278215" y="426.50319616511274" as="geometry" />
        </mxCell>
        <mxCell id="rJDQWY2zP7hxmgYJOwPS-8" value="*" style="edgeLabel;resizable=0;html=1;align=right;verticalAlign=bottom;fontSize=12;" parent="1" connectable="0" vertex="1">
          <mxGeometry x="639.9999041278214" y="466.50319616511274" as="geometry" />
        </mxCell>
        <mxCell id="rJDQWY2zP7hxmgYJOwPS-9" value="1" style="edgeLabel;resizable=0;html=1;align=left;verticalAlign=bottom;fontSize=12;" parent="1" connectable="0" vertex="1">
          <mxGeometry x="699.92" y="173.5" as="geometry" />
        </mxCell>
        <mxCell id="rJDQWY2zP7hxmgYJOwPS-10" value="User" style="swimlane;fontStyle=0;childLayout=stackLayout;horizontal=1;startSize=26;fillColor=none;horizontalStack=0;resizeParent=1;resizeParentMax=0;resizeLast=0;collapsible=1;marginBottom=0;" parent="1" vertex="1">
          <mxGeometry x="210" y="33.5" width="140" height="104" as="geometry">
            <mxRectangle x="20" y="520" width="70" height="30" as="alternateBounds" />
          </mxGeometry>
        </mxCell>
        <mxCell id="rJDQWY2zP7hxmgYJOwPS-11" value="full_name" style="text;strokeColor=none;fillColor=none;align=left;verticalAlign=top;spacingLeft=4;spacingRight=4;overflow=hidden;rotatable=0;points=[[0,0.5],[1,0.5]];portConstraint=eastwest;" parent="rJDQWY2zP7hxmgYJOwPS-10" vertex="1">
          <mxGeometry y="26" width="140" height="26" as="geometry" />
        </mxCell>
        <mxCell id="rJDQWY2zP7hxmgYJOwPS-12" value="date_of_birth" style="text;strokeColor=none;fillColor=none;align=left;verticalAlign=top;spacingLeft=4;spacingRight=4;overflow=hidden;rotatable=0;points=[[0,0.5],[1,0.5]];portConstraint=eastwest;" parent="rJDQWY2zP7hxmgYJOwPS-10" vertex="1">
          <mxGeometry y="52" width="140" height="26" as="geometry" />
        </mxCell>
        <mxCell id="rJDQWY2zP7hxmgYJOwPS-13" value="gender" style="text;strokeColor=none;fillColor=none;align=left;verticalAlign=top;spacingLeft=4;spacingRight=4;overflow=hidden;rotatable=0;points=[[0,0.5],[1,0.5]];portConstraint=eastwest;" parent="rJDQWY2zP7hxmgYJOwPS-10" vertex="1">
          <mxGeometry y="78" width="140" height="26" as="geometry" />
        </mxCell>
        <mxCell id="rJDQWY2zP7hxmgYJOwPS-14" value="InformationRequest" style="swimlane;fontStyle=0;childLayout=stackLayout;horizontal=1;startSize=26;fillColor=none;horizontalStack=0;resizeParent=1;resizeParentMax=0;resizeLast=0;collapsible=1;marginBottom=0;" parent="1" vertex="1">
          <mxGeometry x="649.68" y="20" width="140" height="130" as="geometry" />
        </mxCell>
        <mxCell id="rJDQWY2zP7hxmgYJOwPS-15" value="request_title" style="text;strokeColor=none;fillColor=none;align=left;verticalAlign=top;spacingLeft=4;spacingRight=4;overflow=hidden;rotatable=0;points=[[0,0.5],[1,0.5]];portConstraint=eastwest;" parent="rJDQWY2zP7hxmgYJOwPS-14" vertex="1">
          <mxGeometry y="26" width="140" height="26" as="geometry" />
        </mxCell>
        <mxCell id="rJDQWY2zP7hxmgYJOwPS-16" value="description" style="text;strokeColor=none;fillColor=none;align=left;verticalAlign=top;spacingLeft=4;spacingRight=4;overflow=hidden;rotatable=0;points=[[0,0.5],[1,0.5]];portConstraint=eastwest;" parent="rJDQWY2zP7hxmgYJOwPS-14" vertex="1">
          <mxGeometry y="52" width="140" height="26" as="geometry" />
        </mxCell>
        <mxCell id="rJDQWY2zP7hxmgYJOwPS-17" value="format" style="text;strokeColor=none;fillColor=none;align=left;verticalAlign=top;spacingLeft=4;spacingRight=4;overflow=hidden;rotatable=0;points=[[0,0.5],[1,0.5]];portConstraint=eastwest;" parent="rJDQWY2zP7hxmgYJOwPS-14" vertex="1">
          <mxGeometry y="78" width="140" height="26" as="geometry" />
        </mxCell>
        <mxCell id="rJDQWY2zP7hxmgYJOwPS-18" value="date" style="text;strokeColor=none;fillColor=none;align=left;verticalAlign=top;spacingLeft=4;spacingRight=4;overflow=hidden;rotatable=0;points=[[0,0.5],[1,0.5]];portConstraint=eastwest;" parent="rJDQWY2zP7hxmgYJOwPS-14" vertex="1">
          <mxGeometry y="104" width="140" height="26" as="geometry" />
        </mxCell>
        <mxCell id="rJDQWY2zP7hxmgYJOwPS-19" value="OfficeEmployee" style="swimlane;fontStyle=0;childLayout=stackLayout;horizontal=1;startSize=26;fillColor=none;horizontalStack=0;resizeParent=1;resizeParentMax=0;resizeLast=0;collapsible=1;marginBottom=0;" parent="1" vertex="1">
          <mxGeometry x="210" y="216.5" width="140" height="78" as="geometry" />
        </mxCell>
        <mxCell id="rJDQWY2zP7hxmgYJOwPS-20" value="salary" style="text;strokeColor=none;fillColor=none;align=left;verticalAlign=top;spacingLeft=4;spacingRight=4;overflow=hidden;rotatable=0;points=[[0,0.5],[1,0.5]];portConstraint=eastwest;" parent="rJDQWY2zP7hxmgYJOwPS-19" vertex="1">
          <mxGeometry y="26" width="140" height="26" as="geometry" />
        </mxCell>
        <mxCell id="rJDQWY2zP7hxmgYJOwPS-21" value="position" style="text;strokeColor=none;fillColor=none;align=left;verticalAlign=top;spacingLeft=4;spacingRight=4;overflow=hidden;rotatable=0;points=[[0,0.5],[1,0.5]];portConstraint=eastwest;" parent="rJDQWY2zP7hxmgYJOwPS-19" vertex="1">
          <mxGeometry y="52" width="140" height="26" as="geometry" />
        </mxCell>
        <mxCell id="rJDQWY2zP7hxmgYJOwPS-22" value="InformationAnswer" style="swimlane;fontStyle=0;childLayout=stackLayout;horizontal=1;startSize=26;fillColor=none;horizontalStack=0;resizeParent=1;resizeParentMax=0;resizeLast=0;collapsible=1;marginBottom=0;" parent="1" vertex="1">
          <mxGeometry x="649.68" y="203.5" width="140" height="130" as="geometry" />
        </mxCell>
        <mxCell id="rJDQWY2zP7hxmgYJOwPS-23" value="answer_title" style="text;strokeColor=none;fillColor=none;align=left;verticalAlign=top;spacingLeft=4;spacingRight=4;overflow=hidden;rotatable=0;points=[[0,0.5],[1,0.5]];portConstraint=eastwest;" parent="rJDQWY2zP7hxmgYJOwPS-22" vertex="1">
          <mxGeometry y="26" width="140" height="26" as="geometry" />
        </mxCell>
        <mxCell id="rJDQWY2zP7hxmgYJOwPS-24" value="answer_information" style="text;strokeColor=none;fillColor=none;align=left;verticalAlign=top;spacingLeft=4;spacingRight=4;overflow=hidden;rotatable=0;points=[[0,0.5],[1,0.5]];portConstraint=eastwest;" parent="rJDQWY2zP7hxmgYJOwPS-22" vertex="1">
          <mxGeometry y="52" width="140" height="26" as="geometry" />
        </mxCell>
        <mxCell id="rJDQWY2zP7hxmgYJOwPS-25" value="file" style="text;strokeColor=none;fillColor=none;align=left;verticalAlign=top;spacingLeft=4;spacingRight=4;overflow=hidden;rotatable=0;points=[[0,0.5],[1,0.5]];portConstraint=eastwest;" parent="rJDQWY2zP7hxmgYJOwPS-22" vertex="1">
          <mxGeometry y="78" width="140" height="26" as="geometry" />
        </mxCell>
        <mxCell id="kYzrvw-1zmorCVAln4C1-2" value="date" style="text;strokeColor=none;fillColor=none;align=left;verticalAlign=top;spacingLeft=4;spacingRight=4;overflow=hidden;rotatable=0;points=[[0,0.5],[1,0.5]];portConstraint=eastwest;" parent="rJDQWY2zP7hxmgYJOwPS-22" vertex="1">
          <mxGeometry y="104" width="140" height="26" as="geometry" />
        </mxCell>
        <mxCell id="rJDQWY2zP7hxmgYJOwPS-26" value="TechnicalEmployee" style="swimlane;fontStyle=0;childLayout=stackLayout;horizontal=1;startSize=26;fillColor=none;horizontalStack=0;resizeParent=1;resizeParentMax=0;resizeLast=0;collapsible=1;marginBottom=0;" parent="1" vertex="1">
          <mxGeometry x="210" y="353" width="140" height="78" as="geometry" />
        </mxCell>
        <mxCell id="rJDQWY2zP7hxmgYJOwPS-27" value="salary" style="text;strokeColor=none;fillColor=none;align=left;verticalAlign=top;spacingLeft=4;spacingRight=4;overflow=hidden;rotatable=0;points=[[0,0.5],[1,0.5]];portConstraint=eastwest;" parent="rJDQWY2zP7hxmgYJOwPS-26" vertex="1">
          <mxGeometry y="26" width="140" height="26" as="geometry" />
        </mxCell>
        <mxCell id="rJDQWY2zP7hxmgYJOwPS-28" value="position" style="text;strokeColor=none;fillColor=none;align=left;verticalAlign=top;spacingLeft=4;spacingRight=4;overflow=hidden;rotatable=0;points=[[0,0.5],[1,0.5]];portConstraint=eastwest;" parent="rJDQWY2zP7hxmgYJOwPS-26" vertex="1">
          <mxGeometry y="52" width="140" height="26" as="geometry" />
        </mxCell>
        <mxCell id="rJDQWY2zP7hxmgYJOwPS-29" value="AirClear" style="swimlane;fontStyle=0;childLayout=stackLayout;horizontal=1;startSize=26;fillColor=none;horizontalStack=0;resizeParent=1;resizeParentMax=0;resizeLast=0;collapsible=1;marginBottom=0;" parent="1" vertex="1">
          <mxGeometry x="649.68" y="350" width="140" height="130" as="geometry" />
        </mxCell>
        <mxCell id="rJDQWY2zP7hxmgYJOwPS-30" value="date" style="text;strokeColor=none;fillColor=none;align=left;verticalAlign=top;spacingLeft=4;spacingRight=4;overflow=hidden;rotatable=0;points=[[0,0.5],[1,0.5]];portConstraint=eastwest;" parent="rJDQWY2zP7hxmgYJOwPS-29" vertex="1">
          <mxGeometry y="26" width="140" height="26" as="geometry" />
        </mxCell>
        <mxCell id="rJDQWY2zP7hxmgYJOwPS-31" value="time" style="text;strokeColor=none;fillColor=none;align=left;verticalAlign=top;spacingLeft=4;spacingRight=4;overflow=hidden;rotatable=0;points=[[0,0.5],[1,0.5]];portConstraint=eastwest;" parent="rJDQWY2zP7hxmgYJOwPS-29" vertex="1">
          <mxGeometry y="52" width="140" height="26" as="geometry" />
        </mxCell>
        <mxCell id="rJDQWY2zP7hxmgYJOwPS-32" value="clear_air_percent" style="text;strokeColor=none;fillColor=none;align=left;verticalAlign=top;spacingLeft=4;spacingRight=4;overflow=hidden;rotatable=0;points=[[0,0.5],[1,0.5]];portConstraint=eastwest;" parent="rJDQWY2zP7hxmgYJOwPS-29" vertex="1">
          <mxGeometry y="78" width="140" height="26" as="geometry" />
        </mxCell>
        <mxCell id="rJDQWY2zP7hxmgYJOwPS-33" value="location" style="text;strokeColor=none;fillColor=none;align=left;verticalAlign=top;spacingLeft=4;spacingRight=4;overflow=hidden;rotatable=0;points=[[0,0.5],[1,0.5]];portConstraint=eastwest;" parent="rJDQWY2zP7hxmgYJOwPS-29" vertex="1">
          <mxGeometry y="104" width="140" height="26" as="geometry" />
        </mxCell>
        <mxCell id="rJDQWY2zP7hxmgYJOwPS-34" style="rounded=0;orthogonalLoop=1;jettySize=auto;html=1;exitX=1;exitY=0.077;exitDx=0;exitDy=0;entryX=0;entryY=0.5;entryDx=0;entryDy=0;exitPerimeter=0;endArrow=open;endFill=0;" parent="1" source="rJDQWY2zP7hxmgYJOwPS-11" target="rJDQWY2zP7hxmgYJOwPS-15" edge="1">
          <mxGeometry relative="1" as="geometry" />
        </mxCell>
        <mxCell id="rJDQWY2zP7hxmgYJOwPS-35" value="send" style="text;html=1;strokeColor=none;fillColor=none;align=center;verticalAlign=middle;whiteSpace=wrap;rounded=0;" parent="1" vertex="1">
          <mxGeometry x="370" y="33.5" width="60" height="30" as="geometry" />
        </mxCell>
        <mxCell id="rJDQWY2zP7hxmgYJOwPS-36" style="rounded=0;orthogonalLoop=1;jettySize=auto;html=1;exitX=1.009;exitY=0.097;exitDx=0;exitDy=0;entryX=0;entryY=0.5;entryDx=0;entryDy=0;exitPerimeter=0;endArrow=open;endFill=0;" parent="1" source="rJDQWY2zP7hxmgYJOwPS-20" target="rJDQWY2zP7hxmgYJOwPS-23" edge="1">
          <mxGeometry relative="1" as="geometry" />
        </mxCell>
        <mxCell id="rJDQWY2zP7hxmgYJOwPS-37" value="send" style="text;html=1;strokeColor=none;fillColor=none;align=center;verticalAlign=middle;whiteSpace=wrap;rounded=0;" parent="1" vertex="1">
          <mxGeometry x="370" y="216.5" width="60" height="30" as="geometry" />
        </mxCell>
        <mxCell id="rJDQWY2zP7hxmgYJOwPS-38" value="answer" style="text;html=1;strokeColor=none;fillColor=none;align=center;verticalAlign=middle;whiteSpace=wrap;rounded=0;" parent="1" vertex="1">
          <mxGeometry x="709.84" y="163.5" width="60" height="30" as="geometry" />
        </mxCell>
        <mxCell id="rJDQWY2zP7hxmgYJOwPS-39" value="change" style="text;html=1;strokeColor=none;fillColor=none;align=center;verticalAlign=middle;whiteSpace=wrap;rounded=0;" parent="1" vertex="1">
          <mxGeometry x="350" y="362" width="50" height="30" as="geometry" />
        </mxCell>
        <mxCell id="rJDQWY2zP7hxmgYJOwPS-40" style="edgeStyle=orthogonalEdgeStyle;rounded=0;orthogonalLoop=1;jettySize=auto;html=1;exitX=0;exitY=0.25;exitDx=0;exitDy=0;entryX=-0.006;entryY=0.128;entryDx=0;entryDy=0;entryPerimeter=0;endArrow=block;endFill=0;" parent="1" source="rJDQWY2zP7hxmgYJOwPS-26" target="rJDQWY2zP7hxmgYJOwPS-10" edge="1">
          <mxGeometry relative="1" as="geometry">
            <Array as="points">
              <mxPoint x="180" y="373" />
              <mxPoint x="180" y="47" />
            </Array>
          </mxGeometry>
        </mxCell>
        <mxCell id="rJDQWY2zP7hxmgYJOwPS-41" style="rounded=0;orthogonalLoop=1;jettySize=auto;html=1;exitX=0.5;exitY=0;exitDx=0;exitDy=0;entryX=0.5;entryY=1.071;entryDx=0;entryDy=0;entryPerimeter=0;endArrow=block;endFill=0;" parent="1" source="rJDQWY2zP7hxmgYJOwPS-19" target="rJDQWY2zP7hxmgYJOwPS-13" edge="1">
          <mxGeometry relative="1" as="geometry" />
        </mxCell>
        <mxCell id="rJDQWY2zP7hxmgYJOwPS-42" style="rounded=0;orthogonalLoop=1;jettySize=auto;html=1;entryX=0.445;entryY=0.981;entryDx=0;entryDy=0;entryPerimeter=0;exitX=0.443;exitY=-0.002;exitDx=0;exitDy=0;exitPerimeter=0;endArrow=open;endFill=0;" parent="1" source="rJDQWY2zP7hxmgYJOwPS-22" target="rJDQWY2zP7hxmgYJOwPS-18" edge="1">
          <mxGeometry relative="1" as="geometry">
            <mxPoint x="711.84" y="193.5" as="sourcePoint" />
          </mxGeometry>
        </mxCell>
        <mxCell id="rJDQWY2zP7hxmgYJOwPS-44" value="AirClearChange" style="swimlane;fontStyle=0;childLayout=stackLayout;horizontal=1;startSize=26;fillColor=none;horizontalStack=0;resizeParent=1;resizeParentMax=0;resizeLast=0;collapsible=1;marginBottom=0;" parent="1" vertex="1">
          <mxGeometry x="420.08" y="362" width="160" height="80" as="geometry" />
        </mxCell>
        <mxCell id="rJDQWY2zP7hxmgYJOwPS-47" value="new_percent_of_clear_air" style="text;strokeColor=none;fillColor=none;align=left;verticalAlign=top;spacingLeft=4;spacingRight=4;overflow=hidden;rotatable=0;points=[[0,0.5],[1,0.5]];portConstraint=eastwest;" parent="rJDQWY2zP7hxmgYJOwPS-44" vertex="1">
          <mxGeometry y="26" width="160" height="26" as="geometry" />
        </mxCell>
        <mxCell id="rJDQWY2zP7hxmgYJOwPS-48" value="location" style="text;strokeColor=none;fillColor=none;align=left;verticalAlign=top;spacingLeft=4;spacingRight=4;overflow=hidden;rotatable=0;points=[[0,0.5],[1,0.5]];portConstraint=eastwest;" parent="rJDQWY2zP7hxmgYJOwPS-44" vertex="1">
          <mxGeometry y="52" width="160" height="28" as="geometry" />
        </mxCell>
        <mxCell id="rJDQWY2zP7hxmgYJOwPS-50" style="edgeStyle=orthogonalEdgeStyle;rounded=0;orthogonalLoop=1;jettySize=auto;html=1;exitX=1;exitY=0.5;exitDx=0;exitDy=0;entryX=0;entryY=0.5;entryDx=0;entryDy=0;endArrow=open;endFill=0;" parent="1" source="rJDQWY2zP7hxmgYJOwPS-27" target="rJDQWY2zP7hxmgYJOwPS-47" edge="1">
          <mxGeometry relative="1" as="geometry" />
        </mxCell>
        <mxCell id="rJDQWY2zP7hxmgYJOwPS-51" value="1" style="edgeLabel;resizable=0;html=1;align=left;verticalAlign=bottom;fontSize=12;" parent="1" connectable="0" vertex="1">
          <mxGeometry x="350" y="415" as="geometry" />
        </mxCell>
        <mxCell id="rJDQWY2zP7hxmgYJOwPS-52" style="edgeStyle=orthogonalEdgeStyle;rounded=0;orthogonalLoop=1;jettySize=auto;html=1;exitX=1;exitY=0.5;exitDx=0;exitDy=0;entryX=0;entryY=0.5;entryDx=0;entryDy=0;endArrow=open;endFill=0;" parent="1" source="rJDQWY2zP7hxmgYJOwPS-47" target="rJDQWY2zP7hxmgYJOwPS-32" edge="1">
          <mxGeometry relative="1" as="geometry" />
        </mxCell>
        <mxCell id="rJDQWY2zP7hxmgYJOwPS-53" value="check" style="text;html=1;strokeColor=none;fillColor=none;align=center;verticalAlign=middle;whiteSpace=wrap;rounded=0;" parent="1" vertex="1">
          <mxGeometry x="580.0799999999999" y="370" width="50" height="30" as="geometry" />
        </mxCell>
        <mxCell id="rJDQWY2zP7hxmgYJOwPS-54" value="1" style="edgeLabel;resizable=0;html=1;align=left;verticalAlign=bottom;fontSize=12;" parent="1" connectable="0" vertex="1">
          <mxGeometry x="580.08" y="426.5" as="geometry" />
        </mxCell>
      </root>
    </mxGraphModel>
  </diagram>
</mxfile>
